#Comment line ignore any data following # character 
#Hierarchical Translation and Rotation (.htr) file 
[Header]	
#Header keywords are followed by a single value 
FileType HTR		#Single word string
DataType HTRS		#Translation followed by rotation and scale data
FileVersion 1		#integer
NumSegments 25		#integer
NumFrames 6		#integer
DataFrameRate 30		#integer, data frame rate in this file
EulerRotationOrder ZYX
CalibrationUnits mm
RotationUnits Degrees
GlobalAxisofGravity Y
BoneLengthAxis Y
ScaleFactor 1.00
[SegmentNames&Hierarchy]
#CHILD	PARENT
BN_Tick_Root GLOBAL
BN_Torso BN_Tick_Root
BN_L_Leg_Front01 BN_Torso
BN_L_Leg_Rear01 BN_Torso
BN_MetalTop BN_Torso
BN_Neck BN_Torso
BN_R_Leg_Front01 BN_Torso
BN_R_Leg_Rear01 BN_Torso
BN_Sack BN_Torso
BN_L_Leg_Front02 BN_L_Leg_Front01
BN_L_Leg_Front03 BN_L_Leg_Front02
BN_L_Leg_Rear02 BN_L_Leg_Rear01
BN_L_Leg_Rear03 BN_L_Leg_Rear02
BN_Head BN_Neck
BN_Needle BN_Head
BN_R_Leg_Front02 BN_R_Leg_Front01
BN_R_Leg_Front03 BN_R_Leg_Front02
BN_R_Leg_Rear02 BN_R_Leg_Rear01
BN_R_Leg_Rear03 BN_R_Leg_Rear02
BN_SackDef01 BN_Sack
BN_SackDef02 BN_Sack
BN_SackDef03 BN_Sack
BN_SackDef04 BN_Sack
BN_SackDef05 BN_Sack
BN_SackDef06 BN_Sack
[BasePosition]
#SegmentName Tx, Ty, Tz, Rx, Ry, Rz, BoneLength
BN_Tick_Root 0.000000 0.000000 0.000000 -90.000000 0.000000 0.000000 10.000000 
BN_Torso 0.000000 0.000000 0.000000 0.000000 0.000000 0.000000 10.000000 
BN_L_Leg_Front01 0.000000 0.000000 0.000000 0.000000 0.000000 0.000000 10.000000 
BN_L_Leg_Rear01 0.000000 0.000000 0.000000 0.000000 0.000000 0.000000 10.000000 
BN_MetalTop 0.000000 0.000000 0.000000 0.000000 0.000000 0.000000 10.000000 
BN_Neck 0.000000 0.000000 0.000000 0.000000 0.000000 0.000000 10.000000 
BN_R_Leg_Front01 0.000000 0.000000 0.000000 0.000000 0.000000 0.000000 10.000000 
BN_R_Leg_Rear01 0.000000 0.000000 0.000000 0.000000 0.000000 0.000000 10.000000 
BN_Sack 0.000000 0.000000 0.000000 0.000000 0.000000 0.000000 10.000000 
BN_L_Leg_Front02 0.000000 0.000000 0.000000 0.000000 0.000000 0.000000 10.000000 
BN_L_Leg_Front03 0.000000 0.000000 0.000000 0.000000 0.000000 0.000000 10.000000 
BN_L_Leg_Rear02 0.000000 0.000000 0.000000 0.000000 0.000000 0.000000 10.000000 
BN_L_Leg_Rear03 0.000000 0.000000 0.000000 0.000000 0.000000 0.000000 10.000000 
BN_Head 0.000000 0.000000 0.000000 0.000000 0.000000 0.000000 10.000000 
BN_Needle 0.000000 0.000000 0.000000 0.000000 0.000000 0.000000 10.000000 
BN_R_Leg_Front02 0.000000 0.000000 0.000000 0.000000 0.000000 0.000000 10.000000 
BN_R_Leg_Front03 0.000000 0.000000 0.000000 0.000000 0.000000 0.000000 10.000000 
BN_R_Leg_Rear02 0.000000 0.000000 0.000000 0.000000 0.000000 0.000000 10.000000 
BN_R_Leg_Rear03 0.000000 0.000000 0.000000 0.000000 0.000000 0.000000 10.000000 
BN_SackDef01 0.000000 0.000000 0.000000 0.000000 0.000000 0.000000 10.000000 
BN_SackDef02 0.000000 0.000000 0.000000 0.000000 0.000000 0.000000 10.000000 
BN_SackDef03 0.000000 0.000000 0.000000 0.000000 0.000000 0.000000 10.000000 
BN_SackDef04 0.000000 0.000000 0.000000 0.000000 0.000000 0.000000 10.000000 
BN_SackDef05 0.000000 0.000000 0.000000 0.000000 0.000000 0.000000 10.000000 
BN_SackDef06 0.000000 0.000000 0.000000 0.000000 0.000000 0.000000 10.000000 
#Beginning of Data. Separated by tabs
#Fr	Tx	Ty	Tz	Rx	Ry	Rz	SF
[BN_Tick_Root]
120 0.000000 -277.735382 0.000000 0.000000 0.000000 -0.000020 277.735382
121 0.000000 -277.735382 0.000000 0.000000 0.000000 -0.000020 277.735382
122 0.000000 -277.735382 0.000000 0.000000 0.000000 -0.000020 277.735382
123 0.000000 -277.735382 0.000000 0.000000 0.000000 -0.000020 277.735382
124 0.000000 -277.735382 0.000000 0.000000 0.000000 -0.000020 277.735382
125 0.000000 -277.735382 0.000000 0.000000 0.000000 -0.000020 277.735382
[BN_Torso]
120 46.497143 104.264343 273.177338 20.881525 -1.843043 7.675776 296.072449
121 42.075020 95.509361 270.448608 17.754278 -2.123382 7.175151 289.887543
122 39.307285 90.179909 266.382324 13.925042 -2.270097 6.905245 283.966583
123 36.539783 84.850929 262.315857 9.342677 -2.398308 6.673999 278.108704
124 33.772278 79.521957 258.249359 4.246554 -2.509083 6.476322 272.317902
125 31.522419 75.258957 253.044632 -1.157216 -2.590200 6.316041 265.874329
[BN_L_Leg_Front01]
120 -68.477791 10.734189 -26.804373 -0.078277 58.446190 -153.723633 74.316254
121 -68.477791 10.734189 -26.804373 -5.950792 59.802937 -161.117477 74.316254
122 -68.477791 10.734189 -26.804373 -14.121452 60.624966 -170.083496 74.316254
123 -68.477791 10.734189 -26.804373 -24.317642 60.592281 179.167908 74.316254
124 -68.477791 10.734189 -26.804373 -35.259109 59.312149 167.879517 74.316254
125 -68.477791 10.734189 -26.804373 -45.499710 56.728191 157.470581 74.316254
[BN_L_Leg_Rear01]
120 -72.133743 -73.994843 -18.268616 90.189743 48.619843 -137.285690 104.939293
121 -72.133743 -73.994843 -18.268616 83.032616 44.783627 -137.048386 104.939293
122 -72.133743 -73.994843 -18.268616 76.738754 42.053852 -135.732208 104.939293
123 -72.133743 -73.994843 -18.268616 71.253510 43.439739 -135.712387 104.939293
124 -72.133743 -73.994843 -18.268616 65.595001 46.218060 -137.220871 104.939293
125 -72.133743 -73.994843 -18.268616 59.115513 50.475014 -142.164185 104.939293
[BN_MetalTop]
120 0.000008 13.737477 26.403606 103.575737 -33.337711 -114.223907 29.763546
121 0.000008 13.737477 26.403606 103.337440 -32.615677 -113.611557 29.763546
122 0.000008 13.737477 26.403606 102.934601 -31.874144 -112.992798 29.763546
123 0.000008 13.737477 26.403606 102.544304 -31.128998 -112.385040 29.763546
124 0.000008 13.737477 26.403606 102.015366 -30.363279 -111.784401 29.763546
125 0.000008 13.737477 26.403606 101.327415 -29.425985 -111.076340 29.763546
[BN_Neck]
120 0.000014 95.233284 10.002091 -89.999672 -65.297531 89.999657 95.757088
121 0.000014 95.233284 10.002091 -89.999672 -65.297531 89.999657 95.757088
122 0.000014 95.233284 10.002091 -89.999672 -65.297531 89.999657 95.757088
123 0.000014 95.233284 10.002091 -89.999672 -65.297531 89.999657 95.757088
124 0.000014 95.233284 10.002091 -89.999672 -65.297531 89.999657 95.757088
125 0.000014 95.233284 10.002091 -89.999672 -65.297531 89.999657 95.757088
[BN_R_Leg_Front01]
120 68.477768 10.734107 -26.804314 -35.162174 63.523499 -68.158745 74.316193
121 68.477768 10.734107 -26.804314 -26.933594 66.931252 -57.641975 74.316193
122 68.477768 10.734107 -26.804314 -17.695042 70.296837 -46.488945 74.316193
123 68.477768 10.734107 -26.804314 -2.039818 73.046455 -29.324421 74.316193
124 68.477768 10.734107 -26.804314 19.821676 73.893822 -6.325848 74.316193
125 68.477768 10.734107 -26.804314 41.566895 72.003410 16.221615 74.316193
[BN_R_Leg_Rear01]
120 72.133751 -73.994873 -18.268644 -69.772217 41.213581 -82.393066 104.939331
121 72.133751 -73.994873 -18.268644 -70.496323 46.142479 -80.700127 104.939331
122 72.133751 -73.994873 -18.268644 -70.314590 51.317051 -78.954994 104.939331
123 72.133751 -73.994873 -18.268644 -69.344337 57.215553 -76.501282 104.939331
124 72.133751 -73.994873 -18.268644 -67.040520 63.495140 -72.780846 104.939331
125 72.133751 -73.994873 -18.268644 -62.293476 69.762375 -66.685501 104.939331
[BN_Sack]
120 -0.000000 -78.024918 33.657791 93.125916 3.636344 -118.924370 84.974907
121 -0.000000 -78.024918 33.657791 93.113625 3.926114 -118.317635 84.974907
122 -0.000000 -78.024918 33.657791 93.104408 4.216015 -117.710678 84.974907
123 -0.000000 -78.024918 33.657791 93.098267 4.506006 -117.103500 84.974907
124 -0.000000 -78.024918 33.657791 93.095215 4.796043 -116.496132 84.974907
125 -0.000000 -78.024918 33.657791 93.095230 5.086063 -115.888573 84.974907
[BN_L_Leg_Front02]
120 142.805023 -0.000015 -0.000104 0.173454 0.345670 -97.569237 142.805023
121 142.805023 -0.000015 -0.000104 0.170192 0.359986 -98.905792 142.805023
122 142.805023 -0.000015 -0.000104 0.166598 0.374218 -100.241974 142.805023
123 142.805023 -0.000015 -0.000104 0.161775 0.389214 -101.678284 142.805023
124 142.805023 -0.000015 -0.000104 0.156577 0.404087 -103.114815 142.805023
125 142.805023 -0.000015 -0.000104 0.151008 0.418823 -104.551140 142.805023
[BN_L_Leg_Front03]
120 124.143021 -0.000045 0.000007 0.352054 -0.430578 105.879440 124.143021
121 124.143021 -0.000045 0.000007 0.352877 -0.427251 107.376587 124.143021
122 124.143021 -0.000045 0.000007 0.353787 -0.423948 108.873230 124.143021
123 124.143021 -0.000045 0.000007 0.353308 -0.419069 110.435898 124.143021
124 124.143021 -0.000045 0.000007 0.352962 -0.414178 111.998573 124.143021
125 124.143021 -0.000045 0.000007 0.352840 -0.412267 113.371674 124.143021
[BN_L_Leg_Rear02]
120 139.939041 0.000075 -0.000022 0.040438 -0.236177 107.445770 139.939041
121 139.939041 0.000075 -0.000022 0.031198 -0.239845 109.959686 139.939041
122 139.939041 0.000075 -0.000022 0.042564 -0.235804 106.412910 139.939041
123 139.939041 0.000075 -0.000022 0.087794 -0.219099 92.877892 139.939041
124 139.939041 0.000075 -0.000022 0.138018 -0.179886 75.523125 139.939041
125 139.939041 0.000075 -0.000022 0.136507 -0.188575 76.985008 139.939041
[BN_L_Leg_Rear03]
120 142.839615 0.000179 -0.000060 0.000739 -0.002228 -126.710365 142.839615
121 142.839615 0.000179 -0.000060 0.000785 -0.002212 -129.061432 142.839615
122 142.839615 0.000179 -0.000060 0.000720 -0.002234 -125.724472 142.839615
123 142.839615 0.000179 -0.000060 0.000432 -0.002307 -111.230019 142.839615
124 142.839615 0.000179 -0.000060 0.000023 0.002346 -88.855240 142.839615
125 142.839615 0.000179 -0.000060 0.000018 -0.002346 -90.884537 142.839615
[BN_Head]
120 57.062447 -0.000030 0.000000 2.940258 19.777174 44.017220 57.062447
121 57.062447 -0.000030 0.000000 3.517441 19.589737 41.066761 57.062447
122 57.062447 -0.000030 0.000000 3.828641 19.488495 37.332233 57.062447
123 57.062447 -0.000030 0.000000 4.090428 19.403131 32.825928 57.062447
124 57.062447 -0.000030 0.000000 4.315724 19.326738 27.797066 57.062447
125 57.062447 -0.000030 0.000000 4.492433 19.260332 22.444654 57.062447
[BN_Needle]
120 33.574177 60.391399 -0.000020 0.000003 0.000030 87.896805 69.096649
121 33.574181 60.391399 -0.000018 0.000003 0.000030 87.896805 69.096649
122 33.574181 60.391399 -0.000017 0.000003 0.000030 87.896805 69.096649
123 33.574181 60.391399 -0.000015 0.000003 0.000030 87.896805 69.096649
124 33.574184 60.391396 -0.000014 0.000003 0.000030 87.896805 69.096649
125 33.574184 60.391396 -0.000012 0.000003 0.000030 87.896805 69.096649
[BN_R_Leg_Front02]
120 142.804947 -0.000060 0.000060 -0.042313 0.665461 127.960373 142.804947
121 142.804947 -0.000060 0.000060 -0.089824 0.580890 119.649353 142.804947
122 142.804947 -0.000060 0.000060 -0.086962 0.581312 120.213585 142.804947
123 142.804947 -0.000060 0.000060 -0.082288 0.590834 121.007362 142.804947
124 142.804947 -0.000060 0.000060 -0.077482 0.600293 121.801277 142.804947
125 142.804947 -0.000060 0.000060 -0.072545 0.609684 122.595161 142.804947
[BN_R_Leg_Front03]
120 124.143005 -0.000060 -0.000156 -0.353520 -0.319432 -134.137070 124.143005
121 124.143005 -0.000060 -0.000156 -0.355430 -0.356044 -127.560913 124.143005
122 124.143005 -0.000060 -0.000156 -0.351790 -0.353071 -128.033493 124.143005
123 124.143005 -0.000060 -0.000156 -0.351543 -0.350118 -128.680542 124.143005
124 124.143005 -0.000060 -0.000156 -0.351330 -0.347162 -129.327667 124.143005
125 124.143005 -0.000060 -0.000156 -0.351151 -0.344204 -129.974792 124.143005
[BN_R_Leg_Rear02]
120 139.939011 -0.000149 0.000015 -0.070573 -0.246898 -99.570580 139.939011
121 139.939011 -0.000149 0.000015 -0.059413 -0.240577 -101.850891 139.939011
122 139.939011 -0.000149 0.000015 -0.049980 -0.233607 -103.422241 139.939011
123 139.939011 -0.000149 0.000015 -0.049546 -0.244988 -104.677063 139.939011
124 139.939011 -0.000149 0.000015 -0.045546 -0.234512 -105.592728 139.939011
125 139.939011 -0.000149 0.000015 -0.044353 -0.234739 -106.175323 139.939011
[BN_R_Leg_Rear03]
120 142.839417 0.000075 0.000119 0.002274 -0.000583 118.742905 142.839417
121 142.839417 0.000075 0.000119 0.002261 -0.000630 121.153664 142.839417
122 142.839417 0.000075 0.000119 0.002252 -0.000662 122.760056 142.839417
123 142.839417 0.000075 0.000119 0.002245 -0.000687 124.023994 142.839417
124 142.839417 0.000075 0.000119 0.002239 -0.000704 124.923889 142.839417
125 142.839417 0.000075 0.000119 0.002235 -0.000716 125.497696 142.839417
[BN_SackDef01]
120 597.936646 -15.746975 103.387070 -128.408218 -44.374973 -11.740845 607.013245
121 597.936646 -15.746973 103.387070 -128.408218 -44.374973 -11.740845 607.013245
122 597.936646 -15.746970 103.387070 -128.408218 -44.374973 -11.740845 607.013245
123 597.936646 -15.746968 103.387070 -128.408218 -44.374973 -11.740845 607.013245
124 597.936646 -15.746964 103.387070 -128.408218 -44.374973 -11.740845 607.013245
125 597.936646 -15.746963 103.387070 -128.408218 -44.374973 -11.740845 607.013245
[BN_SackDef02]
120 233.072189 -211.160019 118.223610 32.077126 -27.375721 -88.781525 335.988129
121 233.072189 -211.160019 118.223610 32.077126 -27.375721 -88.781525 335.988129
122 233.072189 -211.160019 118.223610 32.077126 -27.375721 -88.781525 335.988129
123 233.072189 -211.160019 118.223618 32.077126 -27.375721 -88.781525 335.988129
124 233.072189 -211.160019 118.223618 32.077126 -27.375721 -88.781525 335.988129
125 233.072189 -211.160019 118.223618 32.077126 -27.375721 -88.781525 335.988129
[BN_SackDef03]
120 597.936523 -15.746979 -103.387154 18.144459 44.375008 -11.740894 607.013123
121 597.936523 -15.746977 -103.387154 18.144459 44.375008 -11.740894 607.013123
122 597.936523 -15.746975 -103.387154 18.144459 44.375008 -11.740894 607.013123
123 597.936523 -15.746973 -103.387154 18.144459 44.375008 -11.740894 607.013123
124 597.936523 -15.746973 -103.387154 18.144459 44.375008 -11.740894 607.013123
125 597.936523 -15.746971 -103.387154 18.144459 44.375008 -11.740894 607.013123
[BN_SackDef04]
120 233.072037 -211.159988 -118.223358 146.059982 27.375723 -88.781555 335.987915
121 233.072037 -211.159988 -118.223358 146.059982 27.375723 -88.781555 335.987915
122 233.072037 -211.159988 -118.223358 146.059982 27.375723 -88.781555 335.987915
123 233.072037 -211.159988 -118.223358 146.059982 27.375723 -88.781555 335.987915
124 233.072037 -211.159988 -118.223358 146.059982 27.375723 -88.781555 335.987915
125 233.072037 -211.159988 -118.223358 146.059982 27.375723 -88.781555 335.987915
[BN_SackDef05]
120 289.340973 263.516876 -164.100388 0.155741 51.314110 90.605110 424.368103
121 289.340973 263.516876 -164.100388 0.155741 51.314110 90.605110 424.368103
122 289.340973 263.516876 -164.100388 0.155741 51.314110 90.605110 424.368103
123 289.340973 263.516876 -164.100388 0.155741 51.314110 90.605110 424.368103
124 289.340973 263.516876 -164.100388 0.155741 51.314110 90.605110 424.368103
125 289.340973 263.516907 -164.100388 0.155741 51.314110 90.605110 424.368103
[BN_SackDef06]
120 289.341095 263.516998 164.100037 152.058487 -51.314072 90.605019 424.368103
121 289.341095 263.516998 164.100037 152.058487 -51.314072 90.605019 424.368103
122 289.341095 263.516998 164.100037 152.058487 -51.314072 90.605019 424.368103
123 289.341095 263.516998 164.100037 152.058487 -51.314072 90.605019 424.368103
124 289.341095 263.516998 164.100037 152.058487 -51.314072 90.605019 424.368103
125 289.341095 263.516998 164.100037 152.058487 -51.314072 90.605019 424.368103
